<svg width="31" height="37" viewBox="0 0 31 37" fill="none" xmlns="http://www.w3.org/2000/svg">
<g opacity="0.7">
<path d="M6.49328 8.18664V9.05664H1.41328V2.05664H6.35328V2.92664H2.41328V5.07664H5.92328V5.92664H2.41328V8.18664H6.49328ZM11.0125 9.13664C10.0792 9.13664 9.3525 8.86997 8.8325 8.33664C8.3125 7.80331 8.0525 7.03664 8.0525 6.03664V2.05664H9.0525V5.99664C9.0525 7.49664 9.70917 8.24664 11.0225 8.24664C11.6625 8.24664 12.1525 8.06331 12.4925 7.69664C12.8325 7.32331 13.0025 6.75664 13.0025 5.99664V2.05664H13.9725V6.03664C13.9725 7.04331 13.7125 7.81331 13.1925 8.34664C12.6725 8.87331 11.9458 9.13664 11.0125 9.13664ZM20.7027 9.05664L19.1927 6.90664C19.006 6.91997 18.8593 6.92664 18.7527 6.92664H17.0227V9.05664H16.0227V2.05664H18.7527C19.6593 2.05664 20.3727 2.27331 20.8927 2.70664C21.4127 3.13997 21.6727 3.73664 21.6727 4.49664C21.6727 5.03664 21.5393 5.49664 21.2727 5.87664C21.006 6.25664 20.626 6.53331 20.1327 6.70664L21.7927 9.05664H20.7027ZM18.7227 6.07664C19.356 6.07664 19.8393 5.93997 20.1727 5.66664C20.506 5.39331 20.6727 5.00331 20.6727 4.49664C20.6727 3.98997 20.506 3.60331 20.1727 3.33664C19.8393 3.06331 19.356 2.92664 18.7227 2.92664H17.0227V6.07664H18.7227ZM26.4483 9.13664C25.7416 9.13664 25.1049 8.98331 24.5383 8.67664C23.9716 8.36331 23.5249 7.93331 23.1983 7.38664C22.8783 6.83997 22.7183 6.22997 22.7183 5.55664C22.7183 4.88331 22.8783 4.27331 23.1983 3.72664C23.5249 3.17997 23.9716 2.75331 24.5383 2.44664C25.1049 2.13331 25.7416 1.97664 26.4483 1.97664C27.1483 1.97664 27.7816 2.13331 28.3483 2.44664C28.9149 2.75331 29.3583 3.17997 29.6783 3.72664C29.9983 4.26664 30.1583 4.87664 30.1583 5.55664C30.1583 6.23664 29.9983 6.84997 29.6783 7.39664C29.3583 7.93664 28.9149 8.36331 28.3483 8.67664C27.7816 8.98331 27.1483 9.13664 26.4483 9.13664ZM26.4483 8.24664C26.9616 8.24664 27.4216 8.12997 27.8283 7.89664C28.2416 7.66331 28.5649 7.34331 28.7983 6.93664C29.0383 6.52331 29.1583 6.06331 29.1583 5.55664C29.1583 5.04997 29.0383 4.59331 28.7983 4.18664C28.5649 3.77331 28.2416 3.44997 27.8283 3.21664C27.4216 2.98331 26.9616 2.86664 26.4483 2.86664C25.9349 2.86664 25.4683 2.98331 25.0483 3.21664C24.6349 3.44997 24.3083 3.77331 24.0683 4.18664C23.8349 4.59331 23.7183 5.04997 23.7183 5.55664C23.7183 6.06331 23.8349 6.52331 24.0683 6.93664C24.3083 7.34331 24.6349 7.66331 25.0483 7.89664C25.4683 8.12997 25.9349 8.24664 26.4483 8.24664Z" fill="#221F20"/>
<path d="M21.2885 24.2172L20.6571 24.9927L20.6631 24.9976L20.6692 25.0024L21.2885 24.2172ZM22.6005 32.7292L21.743 32.2147L21.7399 32.2199L22.6005 32.7292ZM19.7525 35.2252L20.1813 36.1287L20.1877 36.1256L19.7525 35.2252ZM10.5045 35.4172L10.1882 36.366L10.2007 36.37L10.5045 35.4172ZM6.8565 33.4012L5.99232 32.898L5.58063 33.6051L6.19214 34.1486L6.8565 33.4012ZM8.3285 30.8732L9.01512 30.1462L8.09865 29.2807L7.46432 30.37L8.3285 30.8732ZM11.2725 32.6332L10.9214 33.5696L10.9287 33.5723L10.9362 33.575L11.2725 32.6332ZM18.9525 32.2172L19.5613 33.0105L19.5639 33.0085L18.9525 32.2172ZM18.8245 26.2332L18.258 27.0573L18.2639 27.0613L18.2698 27.0653L18.8245 26.2332ZM8.4885 25.1772L7.49357 25.0767L7.38231 26.1772H8.4885V25.1772ZM9.6725 13.4652V12.4652H8.7685L8.67757 13.3647L9.6725 13.4652ZM22.3125 13.4652H23.3125V12.4652H22.3125V13.4652ZM22.3125 16.2492V17.2492H23.3125V16.2492H22.3125ZM12.3605 16.2492V15.2492H11.4546L11.3654 16.1508L12.3605 16.2492ZM11.7525 22.3932L10.7574 22.2948L10.6487 23.3932H11.7525V22.3932ZM14.2485 23.3932C17.3585 23.3932 19.4268 23.9909 20.6571 24.9927L21.9199 23.4418C20.1636 22.0116 17.5385 21.3932 14.2485 21.3932V23.3932ZM20.6692 25.0024C21.9212 25.9899 22.5605 27.3313 22.5605 29.1452H24.5605C24.5605 26.7778 23.6851 24.8339 21.9078 23.4321L20.6692 25.0024ZM22.5605 29.1452C22.5605 30.2986 22.2838 31.3134 21.743 32.2147L23.458 33.2437C24.1972 32.0117 24.5605 30.6372 24.5605 29.1452H22.5605ZM21.7399 32.2199C21.2376 33.0686 20.451 33.7769 19.3173 34.3249L20.1877 36.1256C21.614 35.4362 22.726 34.4805 23.4611 33.2386L21.7399 32.2199ZM19.3238 34.3218C18.2358 34.8381 16.8351 35.1212 15.0805 35.1212V37.1212C17.0379 37.1212 18.7518 36.807 20.1812 36.1287L19.3238 34.3218ZM15.0805 35.1212C13.6026 35.1212 12.1799 34.9018 10.8083 34.4645L10.2007 36.37C11.7731 36.8713 13.401 37.1212 15.0805 37.1212V35.1212ZM10.8207 34.4686C9.45106 34.012 8.3609 33.4005 7.52086 32.6538L6.19214 34.1486C7.2721 35.1086 8.61394 35.8411 10.1883 36.3659L10.8207 34.4686ZM7.72068 33.9044L9.19268 31.3764L7.46432 30.37L5.99232 32.898L7.72068 33.9044ZM7.64188 31.6002C8.52455 32.4339 9.62737 33.0843 10.9214 33.5696L11.6236 31.6969C10.5283 31.2862 9.66845 30.7633 9.01512 30.1462L7.64188 31.6002ZM10.9362 33.575C12.2433 34.0418 13.6162 34.2732 15.0485 34.2732V32.2732C13.8355 32.2732 12.691 32.078 11.6088 31.6915L10.9362 33.575ZM15.0485 34.2732C16.8569 34.2732 18.4054 33.8976 19.5613 33.0105L18.3437 31.4239C17.6649 31.9448 16.6107 32.2732 15.0485 32.2732V34.2732ZM19.5639 33.0085C20.7597 32.0845 21.3605 30.8047 21.3605 29.2732H19.3605C19.3605 30.2164 19.0226 30.8993 18.3411 31.4259L19.5639 33.0085ZM21.3605 29.2732C21.3605 27.6313 20.7104 26.2886 19.3792 25.4012L18.2698 27.0653C18.9866 27.5432 19.3605 28.2272 19.3605 29.2732H21.3605ZM19.391 25.4092C18.102 24.523 16.0869 24.1772 13.5765 24.1772V26.1772C16.0155 26.1772 17.499 26.5355 18.258 27.0573L19.391 25.4092ZM13.5765 24.1772H8.4885V26.1772H13.5765V24.1772ZM9.48343 25.2778L10.6674 13.5658L8.67757 13.3647L7.49357 25.0767L9.48343 25.2778ZM9.6725 14.4652H22.3125V12.4652H9.6725V14.4652ZM21.3125 13.4652V16.2492H23.3125V13.4652H21.3125ZM22.3125 15.2492H12.3605V17.2492H22.3125V15.2492ZM11.3654 16.1508L10.7574 22.2948L12.7476 22.4917L13.3556 16.3477L11.3654 16.1508ZM11.7525 23.3932H14.2485V21.3932H11.7525V23.3932Z" fill="#221F20"/>
</g>
</svg>
