<svg width="55" height="55" viewBox="0 0 55 55" fill="none" xmlns="http://www.w3.org/2000/svg">
<g opacity="0.7">
<circle cx="27.4613" cy="27.461" r="22.0321" stroke="#221F20"/>
<mask id="mask0_369_1711" style="mask-type:alpha" maskUnits="userSpaceOnUse" x="0" y="0" width="55" height="55">
<circle cx="27.461" cy="27.461" r="26.961" stroke="#221F20"/>
</mask>
<g mask="url(#mask0_369_1711)">
<rect x="-2.1123" y="11.9702" width="59.8508" height="30.9816" fill="black"/>
</g>
<path d="M21.865 31.5335V32.3897H15.2427V23.0249H21.6643V23.8811H16.2327V27.2123H21.0757V28.0551H16.2327V31.5335H21.865Z" fill="#221F20"/>
<path d="M26.7741 32.47C26.0785 32.47 25.4095 32.3585 24.7674 32.1356C24.1341 31.9126 23.6436 31.6183 23.2957 31.2526L23.6837 30.49C24.0226 30.8289 24.473 31.1054 25.0349 31.3195C25.5968 31.5246 26.1766 31.6272 26.7741 31.6272C27.6125 31.6272 28.2413 31.4755 28.6605 31.1723C29.0797 30.8601 29.2893 30.4588 29.2893 29.9682C29.2893 29.5937 29.1733 29.2949 28.9414 29.0719C28.7185 28.8489 28.442 28.6795 28.112 28.5635C27.782 28.4386 27.3227 28.3049 26.734 28.1622C26.0294 27.9838 25.4675 27.8143 25.0483 27.6538C24.6291 27.4843 24.2679 27.2301 23.9647 26.8912C23.6703 26.5523 23.5232 26.093 23.5232 25.5132C23.5232 25.0405 23.648 24.6124 23.8978 24.2289C24.1475 23.8365 24.531 23.5243 25.0483 23.2924C25.5656 23.0605 26.2078 22.9446 26.9748 22.9446C27.5099 22.9446 28.0317 23.0204 28.5401 23.172C29.0574 23.3147 29.5033 23.5154 29.8779 23.774L29.5435 24.5634C29.151 24.3047 28.7318 24.113 28.2859 23.9881C27.8399 23.8543 27.4029 23.7874 26.9748 23.7874C26.1543 23.7874 25.5344 23.948 25.1152 24.269C24.7049 24.5812 24.4998 24.987 24.4998 25.4865C24.4998 25.8611 24.6113 26.1643 24.8343 26.3962C25.0662 26.6192 25.3516 26.7931 25.6905 26.918C26.0383 27.0339 26.5021 27.1632 27.0818 27.3059C27.7686 27.4754 28.3216 27.6449 28.7408 27.8143C29.1689 27.9749 29.5301 28.2246 29.8244 28.5635C30.1187 28.8935 30.2659 29.3439 30.2659 29.9147C30.2659 30.3874 30.1366 30.82 29.8779 31.2124C29.6282 31.596 29.2402 31.9037 28.714 32.1356C28.1878 32.3585 27.5412 32.47 26.7741 32.47Z" fill="#221F20"/>
<path d="M35.9281 23.0249C37.1232 23.0249 38.0597 23.3103 38.7376 23.8811C39.4154 24.4519 39.7543 25.2367 39.7543 26.2357C39.7543 27.2346 39.4154 28.0195 38.7376 28.5903C38.0597 29.1522 37.1232 29.4331 35.9281 29.4331H33.413V32.3897H32.423V23.0249H35.9281ZM35.9013 28.5635C36.8289 28.5635 37.538 28.3628 38.0285 27.9615C38.5191 27.5512 38.7643 26.9759 38.7643 26.2357C38.7643 25.4776 38.5191 24.8978 38.0285 24.4965C37.538 24.0862 36.8289 23.8811 35.9013 23.8811H33.413V28.5635H35.9013Z" fill="#221F20"/>
</g>
</svg>
