<svg width="112" height="55" viewBox="0 0 112 55" fill="none" xmlns="http://www.w3.org/2000/svg">
<g opacity="0.7">
<circle cx="89.4608" cy="27.461" r="22.0321" stroke="#221F20"/>
<path d="M82.7983 31.168V32H76.3633V22.9H82.6033V23.732H77.3253V26.969H82.0313V27.788H77.3253V31.168H82.7983ZM90.7926 27.307C91.3906 27.437 91.85 27.697 92.1706 28.087C92.5 28.4683 92.6646 28.9623 92.6646 29.569C92.6646 30.349 92.3743 30.9513 91.7936 31.376C91.2216 31.792 90.3723 32 89.2456 32H85.0596V22.9H88.9856C89.9996 22.9 90.784 23.1037 91.3386 23.511C91.902 23.9183 92.1836 24.4947 92.1836 25.24C92.1836 25.7427 92.058 26.1717 91.8066 26.527C91.564 26.8737 91.226 27.1337 90.7926 27.307ZM86.0216 23.693V26.995H88.9206C89.6573 26.995 90.225 26.8563 90.6236 26.579C91.0223 26.293 91.2216 25.8813 91.2216 25.344C91.2216 24.8067 91.0223 24.3993 90.6236 24.122C90.225 23.836 89.6573 23.693 88.9206 23.693H86.0216ZM89.2326 31.207C90.0473 31.207 90.6626 31.0683 91.0786 30.791C91.4946 30.5137 91.7026 30.0803 91.7026 29.491C91.7026 28.3557 90.8793 27.788 89.2326 27.788H86.0216V31.207H89.2326ZM94.8604 22.9H98.5654C99.5274 22.9 100.377 23.095 101.113 23.485C101.85 23.8663 102.422 24.4037 102.829 25.097C103.237 25.7817 103.44 26.566 103.44 27.45C103.44 28.334 103.237 29.1227 102.829 29.816C102.422 30.5007 101.85 31.038 101.113 31.428C100.377 31.8093 99.5274 32 98.5654 32H94.8604V22.9ZM98.5134 31.168C99.3108 31.168 100.008 31.012 100.606 30.7C101.204 30.3793 101.668 29.9417 101.997 29.387C102.327 28.8237 102.491 28.178 102.491 27.45C102.491 26.722 102.327 26.0807 101.997 25.526C101.668 24.9627 101.204 24.525 100.606 24.213C100.008 23.8923 99.3108 23.732 98.5134 23.732H95.8224V31.168H98.5134Z" fill="#221F20"/>
<path d="M64.3262 27.84H61.9082V30.206H61.0892V27.84H58.6712V27.073H61.0892V24.694H61.9082V27.073H64.3262V27.84Z" fill="#221F20"/>
<circle cx="27.4608" cy="27.461" r="22.0321" stroke="#221F20"/>
<mask id="mask0_369_1700" style="mask-type:alpha" maskUnits="userSpaceOnUse" x="0" y="0" width="55" height="55">
<circle cx="27.461" cy="27.461" r="26.961" stroke="#221F20"/>
</mask>
<g mask="url(#mask0_369_1700)">
<rect y="12" width="56" height="31" fill="black"/>
</g>
<path d="M20.5539 29.888H15.3363L14.2125 32.3897H13.1824L17.4635 23.0249H18.4401L22.7212 32.3897H21.6777L20.5539 29.888ZM20.1927 29.0853L17.9451 24.055L15.6975 29.0853H20.1927Z" fill="#221F20"/>
<path d="M30.1702 27.5601C30.7856 27.6939 31.2584 27.9615 31.5884 28.3628C31.9273 28.7553 32.0967 29.2637 32.0967 29.888C32.0967 30.6907 31.7979 31.3105 31.2004 31.7476C30.6117 32.1757 29.7377 32.3897 28.5782 32.3897H24.2704V23.0249H28.3106C29.3542 23.0249 30.1613 23.2344 30.7321 23.6536C31.3119 24.0728 31.6017 24.6659 31.6017 25.433C31.6017 25.9503 31.4724 26.3918 31.2138 26.7574C30.964 27.1142 30.6162 27.3818 30.1702 27.5601ZM25.2604 23.8409V27.2391H28.2437C29.0019 27.2391 29.586 27.0963 29.9963 26.8109C30.4066 26.5166 30.6117 26.093 30.6117 25.54C30.6117 24.987 30.4066 24.5678 29.9963 24.2824C29.586 23.9881 29.0019 23.8409 28.2437 23.8409H25.2604ZM28.5648 31.5737C29.4032 31.5737 30.0365 31.431 30.4646 31.1455C30.8927 30.8601 31.1067 30.4142 31.1067 29.8077C31.1067 28.6393 30.2594 28.0551 28.5648 28.0551H25.2604V31.5737H28.5648Z" fill="#221F20"/>
<path d="M36.9385 32.47C36.2428 32.47 35.5739 32.3585 34.9317 32.1356C34.2985 31.9126 33.8079 31.6183 33.4601 31.2526L33.848 30.49C34.187 30.8289 34.6374 31.1054 35.1993 31.3195C35.7612 31.5246 36.3409 31.6272 36.9385 31.6272C37.7768 31.6272 38.4056 31.4755 38.8248 31.1723C39.244 30.8601 39.4536 30.4588 39.4536 29.9682C39.4536 29.5937 39.3377 29.2949 39.1058 29.0719C38.8828 28.8489 38.6063 28.6795 38.2763 28.5635C37.9463 28.4386 37.487 28.3049 36.8983 28.1622C36.1937 27.9838 35.6318 27.8143 35.2126 27.6538C34.7935 27.4843 34.4322 27.2301 34.129 26.8912C33.8347 26.5523 33.6875 26.093 33.6875 25.5132C33.6875 25.0405 33.8124 24.6124 34.0621 24.2289C34.3118 23.8365 34.6954 23.5243 35.2126 23.2924C35.7299 23.0605 36.3721 22.9446 37.1391 22.9446C37.6743 22.9446 38.196 23.0204 38.7044 23.172C39.2217 23.3147 39.6677 23.5154 40.0423 23.774L39.7078 24.5634C39.3154 24.3047 38.8962 24.113 38.4502 23.9881C38.0043 23.8543 37.5672 23.7874 37.1391 23.7874C36.3186 23.7874 35.6987 23.948 35.2795 24.269C34.8693 24.5812 34.6641 24.987 34.6641 25.4865C34.6641 25.8611 34.7756 26.1643 34.9986 26.3962C35.2305 26.6192 35.5159 26.7931 35.8548 26.918C36.2026 27.0339 36.6664 27.1632 37.2462 27.3059C37.9329 27.4754 38.4859 27.6449 38.9051 27.8143C39.3332 27.9749 39.6944 28.2246 39.9887 28.5635C40.2831 28.8935 40.4302 29.3439 40.4302 29.9147C40.4302 30.3874 40.3009 30.82 40.0423 31.2124C39.7925 31.596 39.4046 31.9037 38.8783 32.1356C38.3521 32.3585 37.7055 32.47 36.9385 32.47Z" fill="#221F20"/>
</g>
</svg>
