<svg width="37" height="35" viewBox="0 0 37 35" fill="none" xmlns="http://www.w3.org/2000/svg">
<g opacity="0.7">
<path d="M5.42188 8.96094C5.42188 4.8188 8.77974 1.46094 12.9219 1.46094H28.9219C33.064 1.46094 36.4219 4.8188 36.4219 8.96094V17.0655C36.4219 20.2474 34.41 23.0068 31.3534 23.5546C28.6776 24.0343 25.1178 24.4609 20.9219 24.4609C16.7259 24.4609 13.1662 24.0343 10.4903 23.5546C7.43378 23.0068 5.42188 20.2474 5.42188 17.0655V8.96094Z" stroke="#221F20"/>
<path d="M3.6441 11.9609H2.92188C1.81731 11.9609 0.921875 12.8564 0.921875 13.9609V31.9609C0.921875 33.0655 1.81731 33.9609 2.92188 33.9609H3.34172C4.21585 33.9609 4.98871 33.3933 5.25016 32.5591L7.92188 24.0356" stroke="#221F20"/>
<path d="M13.1513 16.0445L13.6445 16.1267L13.1513 16.0445ZM13.6099 11L10.3211 15.7453L16.075 16.2208L13.6099 11ZM13.4714 29.7278C13.9662 29.3154 14.6888 28.5669 15.2914 27.6309C15.8916 26.6985 16.4028 25.5333 16.4028 24.2991H15.4028C15.4028 25.2662 14.9968 26.2411 14.4506 27.0896C13.9067 27.9344 13.2535 28.6076 12.8312 28.9595L13.4714 29.7278ZM16.4028 24.2991C16.4028 23.5162 16.175 22.7574 15.8682 22.0391C15.5629 21.3241 15.1609 20.6097 14.7947 19.9337C14.0339 18.529 13.448 17.3058 13.6445 16.1267L12.6581 15.9623C12.396 17.5347 13.1859 19.0631 13.9154 20.41C14.2945 21.1097 14.6664 21.7711 14.9486 22.4319C15.2294 23.0894 15.4028 23.7063 15.4028 24.2991H16.4028ZM13.6445 16.1267C13.6763 15.9358 13.7061 15.7459 13.7339 15.5578L12.7447 15.4114C12.7177 15.5938 12.6889 15.7777 12.6581 15.9623L13.6445 16.1267Z" fill="#221F20"/>
<path d="M20.9921 16.0445L21.4853 16.1267L20.9921 16.0445ZM21.4507 11L18.162 15.7453L23.9159 16.2208L21.4507 11ZM21.3122 29.7278C21.807 29.3154 22.5296 28.5669 23.1322 27.6309C23.7325 26.6985 24.2437 25.5333 24.2437 24.2991H23.2437C23.2437 25.2662 22.8377 26.2411 22.2914 27.0896C21.7475 27.9344 21.0944 28.6076 20.672 28.9595L21.3122 29.7278ZM24.2437 24.2991C24.2437 23.5162 24.0158 22.7574 23.7091 22.0391C23.4037 21.3241 23.0017 20.6097 22.6356 19.9337C21.8747 18.529 21.2888 17.3058 21.4853 16.1267L20.4989 15.9623C20.2368 17.5347 21.0267 19.0631 21.7563 20.41C22.1353 21.1097 22.5072 21.7711 22.7894 22.4319C23.0702 23.0894 23.2437 23.7063 23.2437 24.2991H24.2437ZM21.4853 16.1267C21.5171 15.9358 21.5469 15.7459 21.5747 15.5578L20.5855 15.4114C20.5585 15.5938 20.5297 15.7777 20.4989 15.9623L21.4853 16.1267Z" fill="#221F20"/>
<path d="M28.3295 16.0445L28.8227 16.1267L28.3295 16.0445ZM28.7881 11L25.4994 15.7453L31.2533 16.2208L28.7881 11ZM28.6496 29.7278C29.1444 29.3154 29.867 28.5669 30.4696 27.6309C31.0699 26.6985 31.5811 25.5333 31.5811 24.2991H30.5811C30.5811 25.2662 30.1751 26.2411 29.6288 27.0896C29.0849 27.9344 28.4318 28.6076 28.0094 28.9595L28.6496 29.7278ZM31.5811 24.2991C31.5811 23.5162 31.3532 22.7574 31.0465 22.0391C30.7411 21.3241 30.3391 20.6097 29.973 19.9337C29.2121 18.529 28.6262 17.3058 28.8227 16.1267L27.8363 15.9623C27.5742 17.5347 28.3641 19.0631 29.0937 20.41C29.4727 21.1097 29.8446 21.7711 30.1268 22.4319C30.4076 23.0894 30.5811 23.7063 30.5811 24.2991H31.5811ZM28.8227 16.1267C28.8545 15.9358 28.8843 15.7459 28.9121 15.5578L27.9229 15.4114C27.8959 15.5938 27.8671 15.7777 27.8363 15.9623L28.8227 16.1267Z" fill="#221F20"/>
</g>
</svg>
