<svg width="46" height="46" viewBox="0 0 46 46" fill="none" xmlns="http://www.w3.org/2000/svg">
<g opacity="0.7" clip-path="url(#clip0_369_1717)">
<path d="M23.4219 5.53296V41.3749" stroke="#221F20" stroke-miterlimit="10"/>
<path d="M20.49 39.402L23.4218 36.4702L26.3535 39.402" stroke="#221F20" stroke-miterlimit="10"/>
<path d="M26.3535 7.52002L23.4218 10.4518L20.49 7.52002" stroke="#221F20" stroke-miterlimit="10"/>
<path d="M23.4219 5.7994C24.6274 5.7994 25.6046 4.82219 25.6046 3.61674C25.6046 2.41129 24.6274 1.43408 23.4219 1.43408C22.2165 1.43408 21.2393 2.41129 21.2393 3.61674C21.2393 4.82219 22.2165 5.7994 23.4219 5.7994Z" stroke="#221F20" stroke-miterlimit="10"/>
<path d="M23.4219 45.4879C24.6274 45.4879 25.6046 44.5107 25.6046 43.3052C25.6046 42.0998 24.6274 41.1226 23.4219 41.1226C22.2165 41.1226 21.2393 42.0998 21.2393 43.3052C21.2393 44.5107 22.2165 45.4879 23.4219 45.4879Z" stroke="#221F20" stroke-miterlimit="10"/>
<path d="M5.4939 23.4609H41.3359" stroke="#221F20" stroke-miterlimit="10"/>
<path d="M39.3629 26.3926L36.4312 23.4608L39.3629 20.5291" stroke="#221F20" stroke-miterlimit="10"/>
<path d="M7.48096 20.5291L10.4127 23.4608L7.48096 26.3926" stroke="#221F20" stroke-miterlimit="10"/>
<path d="M3.57768 25.6436C4.78313 25.6436 5.76034 24.6664 5.76034 23.461C5.76034 22.2555 4.78313 21.2783 3.57768 21.2783C2.37223 21.2783 1.39502 22.2555 1.39502 23.461C1.39502 24.6664 2.37223 25.6436 3.57768 25.6436Z" stroke="#221F20" stroke-miterlimit="10"/>
<path d="M43.2662 25.6436C44.4716 25.6436 45.4488 24.6664 45.4488 23.461C45.4488 22.2555 44.4716 21.2783 43.2662 21.2783C42.0607 21.2783 41.0835 22.2555 41.0835 23.461C41.0835 24.6664 42.0607 25.6436 43.2662 25.6436Z" stroke="#221F20" stroke-miterlimit="10"/>
<path d="M33.8557 13.0271L12.9958 33.887" stroke="#221F20" stroke-miterlimit="10"/>
<path d="M12.4375 31.0308H15.8503V34.4435" stroke="#221F20" stroke-miterlimit="10"/>
<path d="M34.4045 15.8893H30.9917V12.4766" stroke="#221F20" stroke-miterlimit="10"/>
<path d="M34.9708 13.7083C35.9629 13.7083 36.7671 12.9041 36.7671 11.912C36.7671 10.9199 35.9629 10.1157 34.9708 10.1157C33.9788 10.1157 33.1746 10.9199 33.1746 11.912C33.1746 12.9041 33.9788 13.7083 34.9708 13.7083Z" stroke="#221F20" stroke-miterlimit="10"/>
<path d="M11.8729 36.8062C12.865 36.8062 13.6692 36.002 13.6692 35.0099C13.6692 34.0178 12.865 33.2136 11.8729 33.2136C10.8809 33.2136 10.0767 34.0178 10.0767 35.0099C10.0767 36.002 10.8809 36.8062 11.8729 36.8062Z" stroke="#221F20" stroke-miterlimit="10"/>
<path d="M12.988 13.0271L33.8479 33.887" stroke="#221F20" stroke-miterlimit="10"/>
<path d="M30.9917 34.4435V31.0308H34.4045" stroke="#221F20" stroke-miterlimit="10"/>
<path d="M15.8503 12.4766V15.8893H12.4375" stroke="#221F20" stroke-miterlimit="10"/>
<path d="M11.8729 13.7083C12.865 13.7083 13.6692 12.9041 13.6692 11.912C13.6692 10.9199 12.865 10.1157 11.8729 10.1157C10.8809 10.1157 10.0767 10.9199 10.0767 11.912C10.0767 12.9041 10.8809 13.7083 11.8729 13.7083Z" stroke="#221F20" stroke-miterlimit="10"/>
<path d="M34.9708 36.8062C35.9629 36.8062 36.7671 36.002 36.7671 35.0099C36.7671 34.0178 35.9629 33.2136 34.9708 33.2136C33.9788 33.2136 33.1746 34.0178 33.1746 35.0099C33.1746 36.002 33.9788 36.8062 34.9708 36.8062Z" stroke="#221F20" stroke-miterlimit="10"/>
<path d="M23.4218 27.7899C25.8127 27.7899 27.7509 25.8517 27.7509 23.4609C27.7509 21.07 25.8127 19.1318 23.4218 19.1318C21.031 19.1318 19.0928 21.07 19.0928 23.4609C19.0928 25.8517 21.031 27.7899 23.4218 27.7899Z" stroke="#221F20" stroke-miterlimit="10"/>
</g>
<defs>
<clipPath id="clip0_369_1717">
<rect width="45" height="45" fill="white" transform="translate(0.921875 0.960938)"/>
</clipPath>
</defs>
</svg>
