<svg width="29" height="47" viewBox="0 0 29 47" fill="none" xmlns="http://www.w3.org/2000/svg">
<g opacity="0.7">
<rect x="7.70093" y="1.46094" width="13.4419" height="29.4225" rx="4.5" stroke="#221F20"/>
<path d="M8.95679 28.3955C8.95679 27.1715 9.94906 26.1792 11.1731 26.1792H17.6707C18.8948 26.1792 19.887 27.1715 19.887 28.3955C19.887 28.7194 19.6244 28.982 19.3005 28.982H9.54331C9.21938 28.982 8.95679 28.7194 8.95679 28.3955Z" stroke="#221F20"/>
<path d="M8.99506 14.7708C9.46203 14.7708 9.84058 15.1493 9.84058 15.6163L9.84058 24.3337C9.84058 24.8007 9.46203 25.1792 8.99506 25.1792C8.97396 25.1792 8.95686 25.1621 8.95686 25.141L8.95686 14.809C8.95686 14.7879 8.97396 14.7708 8.99506 14.7708Z" stroke="#221F20" stroke-width="0.94186"/>
<path d="M19.8487 25.1792C19.3817 25.1792 19.0032 24.8006 19.0032 24.3337L19.0032 15.6163C19.0032 15.1493 19.3817 14.7707 19.8487 14.7707C19.8698 14.7707 19.8869 14.7879 19.8869 14.809L19.8869 25.141C19.8869 25.1621 19.8698 25.1792 19.8487 25.1792Z" stroke="#221F20" stroke-width="0.94186"/>
<path d="M9.94301 12.3582C9.49919 10.3422 11.0339 8.43286 13.0981 8.43286H15.7457C17.8099 8.43286 19.3446 10.3422 18.9008 12.3582C18.8006 12.8131 18.3975 13.1371 17.9317 13.1371H10.9121C10.4463 13.1371 10.0432 12.8131 9.94301 12.3582Z" stroke="#221F20"/>
<path d="M18 2C18 2.9507 18.5651 4.85211 20.8256 4.85211" stroke="#221F20"/>
<path d="M11 2C11 2.9507 10.4349 4.85211 8.17442 4.85211" stroke="#221F20"/>
<path d="M27.9219 32.0173C27.9219 39.7182 21.8777 45.961 14.4219 45.961C6.96603 45.961 0.921875 39.7182 0.921875 32.0173" stroke="#221F20" stroke-linecap="round"/>
<path d="M25.4103 32.0173C25.4103 38.318 20.4907 43.4258 14.422 43.4258C8.35326 43.4258 3.43359 38.318 3.43359 32.0173" stroke="#221F20" stroke-linecap="round"/>
<path d="M22.8986 32.3342C22.8986 37.0598 19.1034 40.8906 14.4218 40.8906C9.74024 40.8906 5.94507 37.0598 5.94507 32.3342" stroke="#221F20" stroke-linecap="round"/>
<path d="M20.387 32.6511C20.387 35.8015 17.7163 38.3553 14.4219 38.3553C11.1275 38.3553 8.45679 35.8015 8.45679 32.6511" stroke="#221F20" stroke-linecap="round"/>
</g>
</svg>
